<svg width="800.0000000000001" height="600" xmlns="http://www.w3.org/2000/svg">
 <!-- Created with Method Draw - http://github.com/duopixel/Method-Draw/ -->

 <g>
  <title>background</title>
  <rect x="-1" y="-1" width="802" height="602" id="canvas_background" fill="none"/>
  <g id="canvasGrid" display="none">
   <rect id="svg_1" width="100%" height="100%" x="0" y="0" stroke-width="0" fill="url(#gridpattern)"/>
  </g>
 </g>
 <g>
  <title>Layer 1</title>
  <rect stroke="#000" transform="rotate(25.78101921081543 362.87924194335943,281.18432617187494) " id="svg_4" height="733.508182" width="696.015882" y="-85.569747" x="14.871309" stroke-opacity="null" stroke-width="1.5" fill="#66bb6a"/>
  <path fill="#ffffff" stroke-width="2" d="m35.755993,297.698497c-1.688684,0 -2.556666,-1.753157 -2.556666,-3.855507c0,-1.75275 0.433925,-3.454472 1.688684,-3.454472c0.867982,0 2.174617,1.701722 2.608542,3.454472c0.867982,2.551971 0,3.855507 -1.74056,3.855507zm288.662789,100.032963c3.863433,0 4.731284,0.449621 2.556666,3.454064c-1.254758,2.10235 -3.863301,3.8551 -5.11806,3.8551c-1.306504,0 -2.608542,-1.75275 -2.608542,-3.8551c0,-2.153921 1.740692,-3.454064 5.169936,-3.454064zm-269.728331,-122.362849c-3.863302,-0.850657 -4.297358,-5.158228 0,-6.458778c2.174486,-0.400493 3.429376,0.850521 3.429376,3.454471c0,2.15365 -1.25489,3.405207 -3.429376,3.004307zm-48.156913,136.079627c5.169936,-1.251693 5.169936,-2.151343 3.429376,-5.106793c-1.302039,-2.151342 -1.735964,-4.755021 -0.867982,-5.605814c0.433925,-1.302857 2.608542,0 3.863301,2.552243c1.740561,3.454471 3.042468,3.906807 6.471844,1.75275c2.127469,-1.300414 3.863302,-2.153379 3.863302,-0.850521c0,0.850521 1.306635,0 2.995319,-1.75275c2.608674,-2.552243 3.042599,-8.160365 0.434057,-11.164943c-2.122741,-2.552243 -12.89654,-1.70145 -15.891859,1.300414c-1.735964,2.154057 -3.0426,1.704164 -4.731284,-2.150936c-2.608542,-6.410057 -2.608542,-7.309978 3.429245,-7.710471c5.169937,0 5.169937,0 0.867982,-2.603678c-2.169889,-1.251693 -4.297227,-3.8551 -4.297227,-5.556822c0,-4.3073 5.990639,-6.859543 8.599182,-3.854964c0.867982,1.251421 2.556797,2.552243 4.297358,2.552243c3.429376,0 19.802309,-14.568114 19.802309,-17.572693c0,-1.302721 1.693412,-2.153243 3.429376,-1.302721c2.127337,0.4522 5.99077,-0.850522 9.905948,-3.004579c5.551985,-3.4542 5.551985,-3.8551 2.556666,-9.460914c-2.122741,-3.8551 -4.731284,-5.158228 -10.769202,-5.158228c-6.858621,0 -8.599182,0.850928 -10.721922,6.009157c-0.87271,3.454064 -3.481122,6.006442 -5.169937,6.006442c-2.995319,0 -3.863301,-3.852792 -0.867982,-6.006442c1.301907,-0.850929 2.169889,-3.8551 2.169889,-6.859679c0,-4.706164 -0.867982,-5.556821 -6.471844,-4.304993c-5.603862,0.850522 -5.603862,0.449622 -4.297358,-6.009428c0.867982,-3.854964 2.122741,-7.309164 2.995451,-7.710064c0.867982,-0.449622 1.735833,-4.304993 1.735833,-8.160093c0,-7.710879 2.561394,-9.011293 7.297405,-3.454472c2.169758,3.004443 3.476525,3.454472 4.297227,0.850522c0.867982,-1.70145 3.91045,-2.10235 8.646461,-1.251829c6.424695,1.701722 6.858621,1.251829 5.990639,-3.8551c-0.433926,-3.004171 -0.872579,-6.458642 -1.306504,-7.309164c0,-1.300821 -2.122741,-3.004578 -4.684135,-4.3054c-5.169937,-2.153243 -6.471844,-7.309164 -1.740561,-7.309164c1.306636,0 2.561263,-0.850928 2.561263,-2.554957c0,-1.300821 2.608674,-2.151343 6.037919,-1.753021c4.736011,0.4522 7.292677,-1.25115 13.764521,-10.262036c4.736012,-6.45905 8.165256,-9.91325 8.599313,-8.1605c0.433925,2.151343 2.608543,3.402764 4.73588,3.402764c3.429376,0 3.863433,-1.251421 2.608674,-6.857235c-0.438653,-3.855372 -2.608674,-8.560993 -3.915178,-10.71505c-3.863433,-4.756922 -3.863433,-10.313743 0,-8.6127c3.042468,1.704164 12.509632,-3.001864 12.509632,-6.006307c0,-1.302857 1.259486,-2.15365 2.995319,-2.15365c1.740692,0 2.561394,2.603543 2.561394,6.009021c0,4.304993 0.867982,6.006714 3.042599,4.754886c1.688684,-0.899786 2.995451,-3.454471 2.995451,-5.155786c0,-5.1585 13.76439,-14.169521 17.193635,-11.614971c1.306767,0.8512 2.608543,0 3.047459,-3.004171c1.254627,-6.009022 9.028378,-10.71505 12.457623,-7.710472c1.740692,1.251422 3.429507,0.850929 3.868161,-0.449621c0.86785,-1.704029 4.297226,-3.004579 8.160528,-3.40575c3.863301,-0.449622 9.033238,-2.15365 11.207855,-3.9064c8.160528,-5.556821 16.325916,-5.155921 19.75516,0.853507c2.174618,4.304721 3.042468,4.304721 3.042468,1.300143c0,-3.855371 1.693544,-4.304993 12.028689,-3.004172c16.373064,1.704029 18.934458,1.704029 24.972377,-0.450028c3.863302,-1.251693 5.169806,-0.850793 5.169806,2.603271c0,2.154057 1.25489,3.855507 2.99545,3.855507c1.301908,0 2.556666,-1.251828 2.556666,-2.554685c0,-3.454065 6.910629,-5.155786 12.948416,-3.454065c4.684135,1.704029 5.11806,2.153243 3.863302,13.719086c-0.433926,6.908671 0,11.6147 0.820833,11.6147c0.867851,0 1.740561,-3.004579 1.740561,-7.309571c0,-7.260579 4.731283,-10.262715 6.471844,-4.305129c0.434057,2.151479 1.688684,1.30055 2.556666,-2.102214c2.174749,-9.0136 6.910629,-4.307707 5.603862,5.556821c-1.301776,8.160093 -1.301776,8.160093 2.561525,5.155514c2.174486,-1.30055 3.86317,-4.705621 3.86317,-6.857235c0,-2.153786 1.306767,-4.708336 3.042731,-5.608257c3.429113,-1.701043 7.297274,4.755292 6.037787,9.463221c-0.433925,2.15175 -0.433925,3.855371 0.820702,3.855371c0.87271,0 1.740692,-1.251421 1.740692,-2.15365c0,-1.251692 2.127338,-1.701721 4.735881,-0.850521c5.599265,1.30055 6.419967,4.754614 1.688815,6.856964c-1.254759,0.902229 -2.561394,3.004579 -2.561394,4.7576c0,3.004579 0.872579,3.004579 5.603862,0c7.726603,-5.155786 11.155847,-4.7576 12.462614,0.850522c0.867851,3.004578 2.561263,4.307435 4.297227,3.004578c1.74056,-0.449893 5.603862,1.302857 8.599313,4.304993c2.608542,2.55455 6.471844,4.706028 8.212404,4.706028c2.561394,0 2.561394,2.153922 1.688684,8.162672c-0.86785,6.45905 -0.86785,7.309571 1.740692,4.7063c3.429245,-4.256407 4.731284,-3.855779 5.99077,2.150935c0.433926,3.004579 3.476394,5.158229 6.90577,6.458779c3.863301,0.853507 5.99077,3.004443 5.99077,5.559128c0,2.603543 1.301776,5.605815 2.608543,7.309843c3.429376,3.004171 2.556666,12.015193 -1.306767,15.019636c-1.301776,0.899921 -2.995188,0.450028 -3.429245,-0.850522c-0.867851,-1.303128 -3.863301,-1.303128 -9.467295,0c-9.033238,3.001864 -10.721922,3.8551 -8.599181,7.759193c1.306635,2.552243 16.330512,1.701721 24.53832,-1.302857c2.561394,-1.300686 3.429376,0 3.429376,6.009157c0,4.304721 -0.867982,7.710471 -2.169889,7.710471c-0.87271,0 -1.693412,1.300414 -1.693412,3.454064c0,5.157958 2.127469,4.705622 7.731331,-1.300821c2.990591,-3.454064 4.731152,-4.3073 6.85862,-2.153243c2.16989,2.153243 2.608543,2.153243 2.608543,-1.300821c0,-2.104929 -0.87271,-3.8551 -2.174486,-3.8551c-0.820833,0 -1.693543,-1.704029 -1.693543,-3.40575c0,-2.153379 1.259486,-3.8551 2.995319,-3.8551c1.306635,0 3.042599,0.850521 3.042599,2.10235c0,1.3034 1.693412,3.004443 3.86803,3.454471c2.990722,1.303129 3.863301,3.004579 3.429244,8.160364c-0.872578,9.86385 0.868114,12.8687 7.292678,11.16725c3.042599,-0.853507 4.731152,0 3.429376,1.70145c-0.386777,0.850522 0,3.004579 0.867982,3.903822c3.481121,2.554821 2.174486,8.561671 -1.688815,8.561671c-4.73588,0 -6.037919,2.153243 -3.476394,6.00875c1.735833,2.15365 3.042468,2.552243 4.731152,0.850793c3.915178,-4.304993 4.736012,-0.850793 5.169937,16.323171c0,8.609714 0.867982,15.469664 1.735964,15.469664c2.127337,0 1.306635,9.463221 -1.735964,13.318321c-1.693412,2.151343 -1.693412,4.253557 -0.433925,6.006307c3.042468,3.855508 0,15.02045 -3.868161,15.02045c-3.429113,0 -9.901089,8.160093 -9.901089,12.015464c0,4.708607 -5.551985,0 -6.858621,-5.155921c-1.301907,-4.705893 -1.301907,-4.705893 -2.174617,-1.302857c-0.820702,3.906536 3.868029,15.922 7.778611,19.327071c2.561263,2.60395 -2.174618,6.908671 -5.603994,5.155921c-1.740692,-0.850521 -2.561394,-3.402764 -2.561394,-6.006442c0,-7.309165 -10.769202,-25.734957 -18.934458,-32.643357c-4.344375,-3.40575 -8.207808,-7.26085 -8.207808,-8.561264c0,-2.603679 -13.769118,-10.71505 -21.495721,-13.318593c-4.302086,-1.302857 -5.603993,-0.850657 -5.603993,2.603543c0,2.552243 -0.820702,3.402764 -2.561394,2.552243c-3.863302,-1.701722 -5.603862,2.154057 -2.174486,6.009157c4.73588,4.705893 3.915178,10.313742 -1.254759,8.160093c-3.476525,-1.30055 -3.910581,-0.850929 -2.608543,6.458914c0.433926,4.256 1.306636,9.86385 1.306636,12.416092c0,2.603679 0.86785,4.3054 1.735832,4.3054c1.259618,0 1.693412,-0.850928 0.820834,-2.151342c-0.433926,-1.303129 0.438784,-2.554686 2.174486,-2.554686c1.306767,0 2.561394,1.703757 2.561394,3.405207c0,1.753021 -1.693281,3.454064 -4.73588,3.00485c-2.556666,0 -4.731284,-1.251829 -4.731284,-2.102621c0,-3.906808 -11.594632,-30.492286 -15.023876,-34.396379c-3.863433,-4.256407 -1.302039,-5.556821 -31.831129,14.619007c-4.731152,3.004579 -9.901089,9.463222 -12.509632,14.169522c-2.127469,4.705621 -5.556713,9.463221 -7.292677,10.313742c-1.740561,0.850929 -8.165256,7.710472 -13.76925,15.020043c-24.104395,32.191021 -20.189217,36.046392 -18.500401,101.785984c7.297274,49.814743 7.297274,49.814743 7.297274,49.814743c-17.198494,0 -17.198494,0 -17.198494,0c-14.198447,0 -14.198447,0 -14.198447,0c1.301907,-45.962221 1.301907,-45.962221 1.301907,-45.962221c0.867851,-3.852522 1.306636,-11.614293 1.740692,-15.919693c0.433926,-2.55455 -12.075837,-13.719493 -11.641781,-16.271464c0,-2.15365 12.943689,3.855507 12.943689,1.70145c2.127337,-31.3405 0,-56.273792 -5.603994,-69.543256c-1.301907,-8.1605 -12.075706,-34.3938 -13.76439,-34.3938c-0.434057,0 -3.476525,-2.55455 -6.471844,-5.559128c-5.170068,-5.605543 -7.292677,-6.006715 -36.133084,-7.710472c-30.963015,-1.750442 -30.963015,-1.750442 -30.963015,-1.750442c-7.339827,6.006714 -7.339827,6.006714 -7.339827,6.006714c-4.297226,3.9064 -8.599181,6.458778 -9.854071,6.458778c-2.608543,0 -13.382341,9.013193 -18.066476,14.168707c-0.433925,0 -0.867851,-0.449214 -0.867851,-0.850521c-0.434056,0 -0.434056,0 -0.434056,-0.449893c-0.433926,-1.251421 -0.872579,-2.55455 -1.740561,-3.8551c2.608543,-2.15365 4.73588,-3.456507 5.603862,-3.004171c1.301907,0.850521 2.561394,0 2.561394,-2.154058c0,-2.151342 -2.561394,-3.004442 -9.420015,-2.151342c-8.212536,1.300821 -10.339873,1.750442 -11.641781,6.857371c-2.127468,2.603543 -2.561394,6.458914 -1.301907,9.463493c-0.438785,3.8551 -0.438785,6.458642 0,6.458642c0.433925,0 0.867851,-0.850521 2.169889,-1.752749c0,0.450028 0.433926,0.902228 0.872579,1.302857c-4.301955,1.30055 -6.476572,5.155921 -6.037919,9.011021c-2.174486,1.75275 -4.301954,2.603543 -6.910366,3.904093c0,0 0,-0.449622 -0.386908,-0.449622c1.693412,-3.8551 2.561394,-8.1605 2.99532,-14.619142c0.87271,-7.26085 0.433925,-12.015464 -0.867851,-12.015464c-0.867982,0 -1.740561,1.75275 -1.740561,4.304585c0.433794,2.154057 -0.386908,4.3054 -2.122872,4.7063c-1.306635,0.449622 -2.174486,-0.4009 -2.174486,-2.552243c0,-5.158228 -1.688815,-5.158228 -5.556845,-0.4522c-1.735832,1.75275 -5.165208,3.855372 -8.160528,4.7576c-3.915178,1.251422 -5.169936,0.400493 -6.910497,-4.3054c-1.301907,-3.8551 -2.169889,-8.162671 -1.301907,-9.864121c0.433925,-2.15365 0.433925,-3.904093 -1.254759,-3.904093c-4.736011,0 -1.306635,-6.85995 4.297227,-8.162807zm37.000934,-98.730106c-2.608543,-0.449621 -4.736011,-1.70145 -5.603862,-3.4542c-0.434057,-2.55455 -0.867982,-2.55455 -0.867982,0c0,1.75275 -1.740561,3.004579 -3.429376,3.4542c-3.042468,0 -3.042468,0.449893 0.434057,2.154057c2.122609,0.850522 4.297226,2.150936 4.731152,2.150936c0.386776,0 2.561394,-1.300414 4.736011,-2.150936c3.863301,-2.154057 3.863301,-2.154057 0,-2.154057zm341.11693,69.142357c0.820833,0.850928 1.688815,-0.4522 1.688815,-2.603543c0,-1.703757 -0.867982,-3.405479 -1.688815,-3.405479c-1.306504,0 -2.174486,0.850793 -2.174486,2.10235c0,1.303129 0.867982,3.055879 2.174486,3.906672zm-3.042468,3.855371c-0.433926,-1.303129 -2.561394,-3.004443 -4.301955,-3.004443c-1.254759,0 -2.122741,1.701314 -1.254759,3.004443c0.386777,1.30055 2.127338,2.151478 3.863302,2.151478c1.693412,0 2.127337,-0.850928 1.693412,-2.151478zm-3.863302,19.324764c1.301908,0 3.042468,-0.449621 3.042468,-0.850521c0,-0.902229 -1.74056,-1.75275 -3.042468,-2.603679c-1.693412,-0.850793 -2.995451,-0.4009 -2.995451,0.850929c0,1.302857 1.302039,2.603271 2.995451,2.603271zm3.429376,-40.80345c1.735833,-0.8512 2.608412,-2.153921 2.16989,-3.405749c-1.302039,-3.053165 -8.594717,-3.053165 -8.594717,0c0,3.405749 2.556798,4.706299 6.424827,3.405749zm-23.623189,-32.194006c-2.174618,1.303128 -3.476525,3.855371 -3.042731,5.158228c2.174617,3.403172 4.736143,2.552243 6.905901,-3.004578c2.127468,-5.158229 1.259486,-6.00875 -3.86317,-2.15365zm-8.212536,66.137913c11.207724,11.565436 11.64178,12.015464 11.64178,8.160364c0,-2.151342 -0.867982,-3.904092 -2.174617,-3.904092c-1.254627,0 -3.429245,-2.154058 -4.731152,-4.705893c-1.25489,-2.554957 -3.863301,-5.158636 -5.99077,-5.158636c-3.91045,0 -3.91045,0.452336 1.254759,5.608257zm-9.028642,-20.227264c2.603946,0 3.863433,-0.850521 2.170021,-1.251557c-1.301908,-0.850793 -3.429376,-0.850793 -4.731284,0c-1.306766,0.401036 0,1.251557 2.561263,1.251557zm-12.462483,-58.376142c1.301908,1.300821 5.165209,3.002271 8.594454,3.855507c6.03805,1.300414 6.471975,1.300414 3.042599,-2.15365c-3.91045,-4.256407 -14.632372,-5.556821 -11.637053,-1.701857zm-26.231863,-71.244299c-1.301908,1.251421 -1.735833,3.8551 -1.301908,5.556414c0.867982,3.454472 3.429376,0.450029 3.429376,-4.705893c0,-2.603678 -0.434056,-3.004578 -2.127468,-0.850521zm12.896539,92.723392c3.429376,2.151071 4.736012,2.151071 6.476704,-0.853236c3.429244,-4.706164 1.254627,-6.857236 -5.170068,-3.854964c-5.169937,2.104657 -5.169937,2.104657 -1.306636,4.7082zm-8.594453,-21.479093c6.471844,-4.705486 6.471844,-4.705486 1.301907,-4.705486c-3.476525,0 -6.037919,1.701043 -7.339826,4.705486c-0.820833,3.002271 -1.693412,4.7063 -1.259487,4.7063c0,0 3.429376,-2.554821 7.297406,-4.7063zm-9.467295,69.592385c2.990591,4.7063 8.160659,4.7063 6.471844,-0.449893c-0.433925,-1.703757 -0.872579,-3.8551 -0.872579,-4.307436c0,-0.4009 -1.735964,-0.4009 -3.863301,0.452336c-3.476525,0.850793 -3.476525,2.151343 -1.735964,4.304993zm-13.335193,-17.623586c3.429245,4.706165 5.169937,5.155786 9.033238,1.701722c2.561394,-2.151343 2.561394,-2.151343 0,-2.552243c-1.301907,0 -4.731283,-0.452336 -7.726602,-1.303129c-4.301955,-1.70145 -4.301955,-1.70145 -1.306636,2.15365zm-0.433925,-46.812878c2.174486,0 4.73588,-6.859542 3.429376,-9.010885c-1.688815,-2.15365 -5.16534,1.300414 -5.16534,5.155785c0,2.153786 0.867982,3.8551 1.735964,3.8551zm-21.057199,29.189157c-2.608543,1.75275 -2.174486,2.154057 1.25489,2.154057c2.174486,0 4.731152,-0.853507 5.603862,-2.154057c1.301776,-3.405071 -2.995451,-3.405071 -6.858752,0zm0.434057,37.79955c0.386776,0.452335 1.688684,-0.449893 2.995319,-2.552243c1.301776,-1.75275 5.16534,-3.9064 8.160528,-4.757329c3.863301,-1.300821 5.603993,-3.403035 5.603993,-6.458914c0,-7.257864 -6.037918,-5.106928 -12.462745,4.307572c-2.608411,4.755021 -4.731152,8.610392 -4.297095,9.460914zm-4.73588,-19.774929c3.86317,-4.705621 3.86317,-5.559128 0.82057,-6.859678c-3.429244,-1.701722 -5.98591,2.154057 -5.98591,9.011021c-0.438654,5.158229 -0.438654,5.158229 5.16534,-2.151343zm-6.905901,-50.667842c0.433925,3.454064 1.301907,3.004443 3.86317,-3.405478c3.042731,-6.857372 3.042731,-7.7596 0.434057,-7.7596c-1.688684,0 -3.429376,1.300821 -3.863302,3.454607c-0.867982,1.701314 -0.867982,5.608121 -0.433925,7.710471zm-2.127469,-35.196007c0,1.750443 0.820702,6.006715 1.693412,9.011022c1.301908,6.009021 1.301908,6.009021 2.608543,0.850793c1.688684,-5.155515 0,-12.865986 -2.608543,-12.865986c-1.259486,0 -1.693412,1.300143 -1.693412,3.004171zm-30.137585,14.166807c-2.127338,3.004579 -2.127338,6.009157 -0.438654,15.020043c0.87271,6.458779 3.047328,12.917693 4.301955,14.169521c2.174617,2.15365 2.608543,0 3.042468,-13.316285c0,-16.271871 -2.174486,-21.429693 -6.905769,-15.873279zm3.863301,45.512328c0.434057,0.850929 1.301907,-0.850792 0.867982,-3.405342c0,-2.603679 -0.433925,-3.004579 -1.301907,-1.30055c-0.386908,1.70145 -0.386908,3.8551 0.433925,4.705892zm15.505082,-40.354099c-0.433925,0.850928 -0.433925,6.85995 0.867982,13.316285c1.306635,11.16725 1.693412,11.616872 2.127469,3.456508c0.433925,-13.318593 -0.434057,-19.777236 -2.995451,-16.772793zm-14.6371,121.111156c2.608543,-5.158229 6.905901,-13.768622 9.90122,-18.926443c3.429245,-5.557229 5.603862,-12.866393 6.471844,-20.175964c1.259487,-11.565843 1.259487,-11.565843 1.259487,-11.565843c-5.169937,6.409922 -5.169937,6.409922 -5.169937,6.409922c-2.561394,3.454471 -4.297358,7.309571 -4.297358,8.610392c0,3.405207 -8.165256,24.883893 -10.72665,28.739264c-1.301907,2.150936 -3.476525,6.908672 -3.863301,10.313743c-2.174618,9.862086 1.693412,8.160364 6.424695,-3.405071zm-30.52909,44.209199c1.306635,8.560993 1.306635,8.560993 5.603993,-9.864257c2.561394,-9.913386 6.424695,-25.783678 9.033238,-35.648071c3.429245,-12.465493 4.73588,-22.779235 4.73588,-37.34925c0,-18.924542 -0.438653,-19.325442 -3.867898,-17.171385c-7.773883,5.556686 -12.075837,21.02635 -13.811801,51.066028c-0.820702,15.47265 -1.693412,30.942314 -2.561263,34.347792c-0.434057,3.4542 0,9.913114 0.867851,14.619143zm0.87271,-109.897491c1.688684,4.256271 3.429376,7.710471 3.429376,7.710471c0.433925,0 2.556534,-2.603679 4.297226,-6.00875c2.174486,-3.002136 5.603862,-6.456336 6.905901,-7.708164c5.122657,-3.9064 6.424564,-15.921864 2.127337,-24.082229c-3.429376,-7.309571 -12.896539,-15.472378 -14.637231,-12.868699c-0.867851,0.850792 -2.122609,9.0136 -2.995319,18.474514c-1.735833,14.169114 -1.735833,18.476414 0.87271,24.482857zm-2.608543,-98.331242c0.867982,0.853236 1.735833,0.4009 1.735833,-0.899514c0,-1.704029 -0.867851,-3.40575 -1.735833,-4.256407c-1.306635,-0.902093 -2.127469,-0.449893 -2.127469,1.251828c0,1.30055 0.820834,3.004579 2.127469,3.904093zm-139.357276,115.453634c5.990639,0.4522 5.990639,0.4522 5.990639,0.4522c6.037918,0 12.075837,-5.559128 12.075837,-10.313743c0,-3.004578 -0.433925,-3.004578 -18.066476,9.861543zm2.561394,-12.0156c0,1.303536 0.867982,2.603679 2.174617,2.603679c2.122741,0 8.160528,-7.710471 6.858621,-9.010886c-1.306635,-1.75275 -9.033238,3.854964 -9.033238,6.407207zm4.73588,-29.589649c6.471975,8.5633 9.467295,9.414092 12.896539,3.854964c3.476525,-5.155514 0.434057,-8.609986 -9.905816,-9.861814c-8.594585,-1.303129 -8.594585,-1.303129 -2.990723,6.00685zm-4.73588,-24.080057c0,0.899514 3.042468,3.001864 6.471844,4.754614c15.89199,8.1605 18.934458,8.1605 18.500401,0.401307c0,-4.7063 -6.471844,-15.020314 -9.033238,-15.020314c-3.042468,0 -15.939007,8.160364 -15.939007,9.864393zm23.236413,60.979685c4.731283,0 5.165208,-1.300822 1.301907,-3.403172c-1.740561,-0.4522 -3.429376,0 -3.863301,1.251829c-0.87271,1.300143 0.433925,2.151343 2.561394,2.151343zm3.429376,-100.883892c-2.995451,-2.153921 -6.86348,-3.004443 -8.599313,-2.153921c-2.995319,1.704028 -2.561394,2.153921 1.735833,3.454064c2.127468,0.853507 6.476703,1.704164 8.599312,2.105064c2.561394,0 2.561394,-0.853235 -1.735832,-3.405207zm-0.386777,15.469664c2.556535,0 2.995319,-0.449893 1.254759,-1.750443c-1.254759,-0.400628 -2.995451,-0.400628 -3.863433,0.450029c-0.433925,0.850521 0.867982,1.701721 2.608674,1.300414zm2.556535,9.864529c-6.037788,0 -6.037788,0.400493 -2.556535,3.854964c4.297227,3.8551 5.551985,4.304721 7.292678,1.70145c2.995188,-3.403171 0.86785,-5.556414 -4.736143,-5.556414zm8.599444,-48.5146c-1.740692,-2.15365 -2.174617,1.701722 -1.302039,6.407615c0.433926,3.004578 2.16989,5.607849 3.0426,5.607849c1.688684,0 0.433925,-9.463221 -1.740561,-12.015464zm13.76439,56.674285c-0.867851,0.401307 1.306635,3.004579 3.868029,5.1585c2.608543,2.151343 4.731152,3.002 4.731152,1.70145c0,-3.004171 -7.292546,-8.612292 -8.599181,-6.85995zm-10.769202,3.004579c-3.863301,3.00485 -1.688684,10.714914 3.910581,12.015735c2.99532,0.850658 7.731331,4.305129 10.72665,7.7102c2.608543,3.454472 4.731152,4.7576 4.731152,3.454472c0,-4.304993 -17.193766,-24.933157 -19.368383,-23.180407zm17.632551,35.648478c-2.561263,-6.91125 -5.556714,-10.314421 -11.160707,-12.468071c-4.297227,-1.70145 -8.599181,-2.603272 -9.901089,-2.151072c-1.306635,0.449622 3.863302,6.006443 11.207856,12.465222c13.76439,11.164942 13.76439,11.164942 9.85394,2.153921zm22.844908,-66.138185c-0.867982,0 -1.740692,1.701722 -1.740692,3.403172c0,2.153649 0.87271,3.454471 1.740692,3.454471c1.254759,0 2.127469,-1.300822 2.127469,-3.454471c0,-1.70145 -0.87271,-3.403172 -2.127469,-3.403172zm-3.91045,35.196007c0,3.004171 7.339826,0.850793 10.335145,-3.004579c4.297358,-6.458642 3.863302,-8.160364 -1.74056,-8.160364c-3.863302,0 -8.594585,6.009293 -8.594585,11.164943zm12.509763,-92.723799c-1.306636,5.556821 -2.174618,10.262714 -1.740561,10.71505c1.306504,1.701721 4.736011,-11.164671 4.736011,-16.3229c0,-2.151343 -1.306766,0.452336 -2.99545,5.60785zm22.363834,86.714642c-2.174617,0 -3.863433,0.853507 -3.863433,2.55455c0,1.300821 1.254759,2.154057 2.556666,2.154057c1.740561,0 3.429376,-0.853236 3.86803,-2.154057c0.867982,-1.701043 -0.438654,-2.55455 -2.561263,-2.55455zm-5.170068,80.707927c2.561394,7.761907 6.424695,15.020043 8.599313,16.772793c2.174617,1.300821 6.471844,7.309843 9.033238,13.318593c2.561394,6.006714 5.169937,10.712742 5.603993,10.712742c2.12261,0 -2.174617,-39.500999 -5.169937,-51.51877c-2.608674,-10.311436 -3.429507,-19.774929 -2.99545,-34.794971c0.386776,-11.164672 0,-21.029064 -0.867851,-21.879722c-0.434057,-0.850792 -3.429376,-0.850792 -6.037919,0c-4.736011,1.70145 -5.169936,3.004579 -5.169936,12.4678c0,7.258272 -0.868114,11.164943 -2.995451,12.865986c-6.037787,3.855507 -5.603862,25.735092 0,42.055549zm-12.462483,-57.525078c-0.867982,-6.458778 -1.735833,-7.309571 -6.471844,-7.309571c-5.603993,0 -5.603993,0.449893 -5.169937,9.460914c0,5.559129 0.872579,12.017772 1.306504,15.019907c0.434057,3.004579 2.127469,6.00875 3.863433,6.458779c3.429245,2.153921 7.292546,-12.865986 6.471844,-23.630029zm-6.471844,43.355964c-3.863433,-5.155921 -6.471844,-10.712743 -6.858752,-12.015464c0,-1.70145 -2.174486,-6.006443 -4.731283,-9.861814c-2.608543,-3.8551 -5.603862,-8.612429 -6.910498,-10.31415c-4.297226,-6.00875 -3.429376,-0.850521 1.306636,12.465493c2.995319,9.013192 8.160659,17.173692 14.198446,24.033235c11.160576,11.614564 12.462615,9.461321 2.995451,-4.3073zm-6.858752,21.077786c4.684135,0 4.297358,-0.449622 -2.174486,-7.309165c-4.297358,-4.305399 -7.292677,-9.011292 -7.292677,-11.165078c0,-1.701314 -5.603994,-7.759464 -12.075707,-13.316286c-6.424826,-5.607714 -12.462745,-11.164535 -13.330596,-12.868292c-0.87271,-2.151343 -1.306635,-2.151343 -1.306635,0.4009c0,2.603678 -2.122741,3.004171 -9.033238,1.70145c-4.731284,-0.850929 -8.594585,-0.850929 -8.594585,-0.398593c0,0.850793 1.735833,6.006714 3.476525,11.164535c2.995451,8.5614 4.297227,10.314422 13.764521,13.717322c5.99077,2.15365 15.457802,7.309435 21.495721,11.164535c5.603994,3.906807 12.462614,6.908672 15.071157,6.908672zm-67.143117,14.570014c1.740561,0 4.301955,-0.850522 6.037788,-2.153243c2.99545,-3.002271 0.438784,-3.002271 -5.165209,0c-2.561394,1.302721 -2.995319,1.703621 -0.872579,2.153243zm-4.731283,-10.714914c4.297358,-1.750172 18.066476,-3.4542 30.576239,-3.4542c23.618593,-0.4009 28.354473,-1.701043 18.887178,-4.304993c-2.995188,-0.850522 -9.85394,-3.004579 -15.457802,-5.155922c-9.90122,-3.855099 -30.142314,-2.554549 -32.265054,1.75085c-0.438654,0.852829 -2.608543,1.302722 -4.73588,0.852829c-4.297358,-1.302857 -8.599313,2.151614 -9.901221,9.011293c-1.74056,5.556414 1.301908,6.00875 12.89654,1.300143zm-34.392392,9.864392c0.867982,3.454472 5.169937,3.8551 8.599313,0.850522c2.122609,-1.701315 2.122609,-2.551836 0,-5.155514c-1.740561,-2.554958 -2.995319,-2.554958 -5.603862,-0.4009c-1.740561,1.251828 -2.995451,3.403171 -2.995451,4.705892zm-13.764521,30.040086c1.688815,0 2.556797,1.300821 1.688815,3.855371c-0.386908,1.75275 -1.688815,3.4542 -2.561394,3.4542c-1.301907,0 -2.122741,-1.70145 -2.122741,-3.4542c0,-2.10235 1.254759,-3.855371 2.99532,-3.855371z" id="svg_3" stroke="#ffffff"/>
  <rect fill="#ffffff" stroke-width="2" x="72.49993" y="68.750002" width="480" height="30" id="svg_8" stroke="#ffffff" rx="30" transform="rotate(-13 312.50000000000006,83.75000000000013) "/>
  <rect fill="#ffffff" stroke-width="2" x="430" y="180" width="350" height="30" id="svg_9" stroke="#ffffff" rx="30"/>
  <path fill="none" stroke="#ffffff" stroke-width="30" stroke-opacity="null" fill-opacity="null" d="m623.684211,202.565789c0,0 188.421053,383.157895 -338.421052,369.013158" id="svg_12"/>
  <path fill="none" stroke="#ffffff" stroke-width="30" stroke-opacity="null" fill-opacity="null" d="m427.894734,55.197371c0,0 232.63158,206.31579 -2.631578,324.802632" id="svg_13"/>
 </g>
</svg>